<?xml version="1.0" encoding="UTF-8"?>
<svg id="Layer_2" data-name="Layer 2" xmlns="http://www.w3.org/2000/svg" viewBox="0 0 216.88 123.09">
  <defs>
    <style>
      .cls-1 {
        fill: none;
        isolation: isolate;
      }

      .cls-2 {
        fill: #282828;
      }
    </style>
  </defs>
  <g id="Layer_2-2" data-name="Layer 2">
    <g id="Layer_1-2" data-name="Layer 1-2">
      <path class="cls-2" d="m216.13.75v37.25h-111.75V.75h111.75m.75-.75h-113.25v38.75h113.25V0h0Z"/>
      <path class="cls-2" d="m53.48,42.96v37.25H.75v-37.25h52.73m.75-.75H0v38.75h54.23v-38.75h0Z"/>
      <path class="cls-2" d="m130.24,85.09v37.25H.75v-37.25h129.49m.75-.75H0v38.75h130.99v-38.75h0Z"/>
      <path class="cls-2" d="m216.13,42.96v37.25h-37.25v-37.25h37.25m.75-.75h-38.75v38.75h38.75v-38.75h0Z"/>
      <rect class="cls-2" x="178.13" y="84.34" width="38.75" height="38.74"/>
      <path class="cls-2" d="m173.11,42.96v79.37h-37.25V42.96h37.25m.75-.75h-38.75v80.87h38.75V42.21h0Z"/>
      <g class="cls-1">
        <g class="cls-1">
          <path class="cls-2" d="m17.08,34.61l-12.24-9.56v7.89c0,.53-.2,1-.61,1.42-.4.42-.88.63-1.44.63s-1.04-.2-1.44-.61c-.4-.4-.61-.88-.61-1.44V8.59c0-.58.2-1.07.61-1.46.4-.39.88-.58,1.44-.58s1.04.2,1.44.58c.4.39.61.88.61,1.46v8.18l11.4-9.77c.39-.33.83-.5,1.34-.5.53,0,1,.22,1.4.65.4.43.61.91.61,1.44,0,.61-.24,1.13-.71,1.54l-12.61,10.82,13.32,10.4c.53.42.79.96.79,1.63,0,.58-.2,1.07-.61,1.46-.4.39-.88.58-1.44.58-.47,0-.89-.14-1.25-.42Z"/>
          <path class="cls-2" d="m26.96,33.69c-1.32-.86-2.36-2.04-3.11-3.53-.75-1.49-1.13-3.11-1.13-4.87,0-1.98.44-3.82,1.34-5.53.89-1.71,2.09-3.08,3.59-4.09,1.5-1.02,3.12-1.52,4.84-1.52,1.59,0,3.04.45,4.36,1.34,1.32.89,2.37,2.07,3.13,3.55.77,1.48,1.15,3.06,1.15,4.76,0,2-.45,3.86-1.34,5.58s-2.09,3.08-3.61,4.09c-1.52,1.02-3.14,1.52-4.87,1.52-1.59,0-3.04-.43-4.36-1.29Zm7.16-3.47c.89-.67,1.6-1.56,2.13-2.67.53-1.11.79-2.3.79-3.55,0-1.06-.21-2.05-.63-2.99s-.99-1.68-1.71-2.26c-.72-.57-1.52-.86-2.38-.86-.98,0-1.89.34-2.74,1.02-.85.68-1.52,1.59-2.03,2.71-.5,1.13-.75,2.33-.75,3.61s.22,2.33.65,3.22c.43.89.99,1.57,1.67,2.05.68.47,1.41.71,2.19.71.97,0,1.91-.33,2.8-1Z"/>
          <path class="cls-2" d="m46.25,34.4c-.4-.39-.61-.85-.61-1.38v-16.87c0-.53.2-1,.61-1.4.4-.4.87-.61,1.4-.61.56,0,1.03.2,1.42.61.39.4.58.87.58,1.4v2.92c1.73-3.28,4.02-4.93,6.89-4.93,1.14,0,2.14.33,2.99,1,.85.67,1.45,1.67,1.82,3.01,1.78-2.67,3.95-4.01,6.51-4.01,1.73,0,3.09.66,4.09,1.98,1,1.32,1.5,3.31,1.5,5.95v10.94c0,.53-.2.99-.61,1.38-.4.39-.87.58-1.4.58-.56,0-1.03-.2-1.42-.58-.39-.39-.58-.85-.58-1.38v-11.19c0-1.28-.18-2.24-.54-2.88-.36-.64-.93-.96-1.71-.96s-1.61.32-2.42.96c-.81.64-1.47,1.52-1.98,2.63-.52,1.11-.77,2.34-.77,3.67v7.77c0,.56-.19,1.02-.58,1.4-.39.38-.86.56-1.42.56s-1-.2-1.4-.58c-.4-.39-.61-.85-.61-1.38v-11.19c0-1.34-.16-2.31-.48-2.92-.32-.61-.84-.92-1.57-.92-.89,0-1.77.36-2.63,1.07-.86.71-1.61,1.57-2.25,2.57-.5.83-.87,1.67-1.11,2.5-.24.84-.35,1.75-.35,2.76l.04,6.14c0,.53-.19.99-.58,1.38-.39.39-.86.58-1.42.58s-1-.2-1.4-.58Z"/>
          <path class="cls-2" d="m90.89,34.94c-.35-.31-.52-.71-.52-1.21v-.58c-1.14,1.23-2.73,1.84-4.76,1.84-1.53,0-2.91-.38-4.13-1.13s-2.19-1.82-2.88-3.19c-.7-1.38-1.04-2.94-1.04-4.7,0-1.95.42-3.83,1.25-5.66.83-1.82,2.01-3.31,3.53-4.45,1.52-1.14,3.26-1.71,5.24-1.71,1.28,0,2.44.17,3.47.52,1.03.35,2.1.77,3.22,1.27v17.37c0,.56-.2,1.04-.58,1.46-.39.42-.86.63-1.42.63s-1.01-.15-1.36-.46Zm-2.63-4.34c.77-.33,1.4-.74,1.9-1.21l.13-10.9c-.81-.33-1.68-.5-2.63-.5-1.2,0-2.25.37-3.17,1.11s-1.63,1.71-2.13,2.92c-.5,1.21-.75,2.5-.75,3.86,0,1.7.38,2.99,1.13,3.88.75.89,1.81,1.34,3.17,1.34.81,0,1.59-.17,2.36-.5Z"/>
        </g>
      </g>
      <g class="cls-1">
        <g class="cls-1">
          <path class="cls-2" d="m63.83,74.55c-1.39-.81-2.49-1.91-3.3-3.32-.81-1.41-1.21-2.94-1.21-4.61,0-1.89.44-3.74,1.34-5.56.89-1.81,2.06-3.28,3.51-4.43,1.45-1.14,2.98-1.71,4.59-1.71,1.48,0,2.67.23,3.57.69.9.46,1.79,1.19,2.65,2.19.42.45.63.93.63,1.46s-.19.98-.58,1.36c-.39.38-.86.56-1.42.56-.36,0-.65-.06-.86-.17s-.45-.33-.73-.67c-.47-.53-.94-.93-1.4-1.21-.46-.28-1.06-.42-1.82-.42-.86,0-1.73.38-2.61,1.13s-1.59,1.73-2.13,2.94c-.54,1.21-.81,2.46-.81,3.74,0,1.11.24,2.08.73,2.9.49.82,1.12,1.45,1.9,1.88.78.43,1.6.65,2.46.65,1.11,0,2.03-.21,2.74-.63.71-.42,1.34-.99,1.9-1.71.53-.7,1.13-1.04,1.8-1.04.53,0,.99.19,1.38.56.39.38.58.8.58,1.27,0,.56-.15,1.03-.46,1.42-.81,1.09-1.91,2.01-3.3,2.78s-2.91,1.15-4.55,1.15-3.2-.4-4.59-1.21Z"/>
          <path class="cls-2" d="m80.89,75.2c-.4-.38-.61-.81-.61-1.32v-24.22c0-.56.19-1.02.56-1.4.38-.38.86-.56,1.44-.56.53,0,1,.2,1.4.58.4.39.61.85.61,1.38v24.22c0,.5-.21.94-.63,1.32s-.88.56-1.38.56c-.53,0-1-.19-1.4-.56Z"/>
          <path class="cls-2" d="m92.26,74.9c-.89-.65-1.56-1.84-2-3.57s-.67-4.2-.67-7.43c0-1.09.04-2.28.12-3.59.08-1.31.19-2.41.33-3.3.11-.7.32-1.22.63-1.59.31-.36.75-.54,1.34-.54s1.03.17,1.42.5c.39.33.58.82.58,1.46l-.08,1.17c-.28,2.37-.42,4.64-.42,6.81,0,2.84.24,4.77.73,5.78.49,1.02,1.16,1.52,2.03,1.52,1,0,2.03-.27,3.09-.81,1.06-.54,1.81-1.06,2.25-1.57.17-.17.25-.51.25-1.04l.08-11.9c0-.56.2-1.02.61-1.38.4-.36.86-.54,1.36-.54.53,0,1,.18,1.4.54.4.36.61.82.61,1.38v16.95c0,.53-.2,1-.61,1.4-.4.4-.87.61-1.4.61-.56,0-1.05-.17-1.48-.52-.43-.35-.65-.79-.65-1.32v-.46c-1.06.75-2.04,1.34-2.94,1.77-.91.43-1.9.65-2.99.65-1.5,0-2.7-.33-3.59-.98Z"/>
          <path class="cls-2" d="m112.31,75.18c-.36-.36-.54-.81-.54-1.34v-24.26c0-.56.19-1.01.58-1.36.39-.35.86-.52,1.42-.52s.99.17,1.38.52c.39.35.58.8.58,1.36v8.18c.81-.89,1.7-1.53,2.67-1.92.97-.39,2.05-.58,3.21-.58,1.39,0,2.66.36,3.8,1.07,1.14.71,2.05,1.76,2.74,3.15.68,1.39,1.02,3.08,1.02,5.05,0,3.56-.82,6.28-2.46,8.16-1.64,1.88-3.88,2.82-6.72,2.82-.78,0-1.61-.13-2.49-.4s-1.55-.56-2.03-.9v.25c0,.28-.17.56-.52.83-.35.28-.77.42-1.27.42-.56,0-1.02-.18-1.38-.54Zm11.63-5.43c.88-1.22,1.32-2.96,1.32-5.22,0-1.73-.33-3.03-1-3.93-.67-.89-1.57-1.34-2.71-1.34-1.06,0-2.03.2-2.92.58-.89.39-1.59.92-2.11,1.59-.52.67-.77,1.41-.77,2.21v7.22c1.42.47,2.74.71,3.97.71,1.95,0,3.36-.61,4.24-1.84Z"/>
        </g>
      </g>
    </g>
  </g>
</svg>